<svg width="278" height="40" viewBox="0 0 278 40" fill="none" xmlns="http://www.w3.org/2000/svg">
<path d="M19.82 10H4.18C2.97602 10 2 10.976 2 12.18V27.82C2 29.024 2.97602 30 4.18 30H19.82C21.024 30 22 29.024 22 27.82V12.18C22 10.976 21.024 10 19.82 10Z" stroke="white" stroke-width="2" stroke-linecap="round" stroke-linejoin="round"/>
<path d="M7 10V30" stroke="white" stroke-width="2" stroke-linecap="round" stroke-linejoin="round"/>
<path d="M17 10V30" stroke="white" stroke-width="2" stroke-linecap="round" stroke-linejoin="round"/>
<path d="M2 20H22" stroke="white" stroke-width="2" stroke-linecap="round" stroke-linejoin="round"/>
<path d="M2 15H7" stroke="white" stroke-width="2" stroke-linecap="round" stroke-linejoin="round"/>
<path d="M2 25H7" stroke="white" stroke-width="2" stroke-linecap="round" stroke-linejoin="round"/>
<path d="M17 25H22" stroke="white" stroke-width="2" stroke-linecap="round" stroke-linejoin="round"/>
<path d="M17 15H22" stroke="white" stroke-width="2" stroke-linecap="round" stroke-linejoin="round"/>
<g style="mix-blend-mode:lighten">
<path d="M32.9814 11.9971C35.3057 10.4639 37.9131 9.69727 40.8037 9.69727C42.9033 9.69727 44.6172 10.1709 45.9453 11.1182C47.2734 12.0557 47.9375 13.2715 47.9375 14.7656C47.9375 16.7578 46.7852 18.0908 44.4805 18.7646V18.9258C44.7148 18.9844 44.998 19.0625 45.3301 19.1602C46.4141 18.9062 47.2637 18.3887 47.8789 17.6074C48.5039 16.8262 48.8164 15.8838 48.8164 14.7803C48.8164 13.3936 48.2451 12.1631 47.1025 11.0889V11.001L47.2637 11.1328C48.543 12.1191 49.1826 13.3838 49.1826 14.9268C49.1826 17.0557 48.0791 18.54 45.8721 19.3799C46.8291 19.8193 47.5713 20.4443 48.0986 21.2549C48.6357 22.0654 48.9043 22.9785 48.9043 23.9941C48.9043 25.4492 48.377 26.6162 47.3223 27.4951C46.2676 28.3643 44.8613 28.7988 43.1035 28.7988H32.6152L34.6367 27.0703V20.7275C34.0605 20.7275 33.3867 20.7861 32.6152 20.9033L32.498 20.4785C33.3672 20.3906 34.0801 20.3467 34.6367 20.3467V19.5703H34.2705C33.7236 19.5703 33.0352 19.6094 32.2051 19.6875L32.8496 18.2812L33.084 18.2959C33.4648 18.3252 33.7529 18.3398 33.9482 18.3398C34.2412 18.3398 34.4707 18.3545 34.6367 18.3838V12.876L32.9814 11.9971ZM37.5664 11.7773V18.3838C37.6738 18.374 37.7471 18.3691 37.7861 18.3691L38.0498 18.3838C38.0889 18.3838 38.1719 18.3838 38.2988 18.3838V12.3926C39.1387 12.002 39.959 11.8066 40.7598 11.8066C41.6777 11.8066 42.4004 11.9727 42.9277 12.3047C43.4648 12.6367 43.9189 13.2031 44.29 14.0039L43.8799 13.7695C43.1475 12.666 42.1025 12.1143 40.7451 12.1143C39.9834 12.1143 39.2998 12.3291 38.6943 12.7588V18.3838H39.3096C41.1748 18.3838 42.5615 18.0762 43.4697 17.4609C44.3877 16.8359 44.8467 15.8838 44.8467 14.6045C44.8467 13.4814 44.4658 12.5781 43.7041 11.8945C42.9521 11.2012 41.9609 10.8545 40.7305 10.8545C39.6465 10.8545 38.5918 11.1621 37.5664 11.7773ZM37.5664 19.585V27.6562H38.2988V20.4639C38.9922 20.415 39.4902 20.3906 39.793 20.3906C41.4141 20.3906 42.5859 20.542 43.3086 20.8447C44.041 21.1475 44.6221 21.7236 45.0518 22.5732H44.876C44.3975 21.8994 43.7969 21.4355 43.0742 21.1816C42.3516 20.918 41.292 20.7861 39.8955 20.7861L38.6943 20.8154V27.6562H39.1631L41.2871 27.583C44.041 27.3877 45.418 26.0498 45.418 23.5693C45.418 22.0166 44.9639 20.957 44.0557 20.3906C43.1475 19.8145 41.4482 19.5264 38.958 19.5264C38.7139 19.5264 38.25 19.5459 37.5664 19.585ZM48.5381 20.6104C49.583 21.4209 50.1055 22.6514 50.1055 24.3018C50.1055 25.9619 49.5244 27.334 48.3623 28.418C47.2295 29.4727 45.5645 30 43.3672 30H33.4062L33.1572 29.6045H42.4004C44.4121 29.6045 45.8623 29.3994 46.751 28.9893C48.7236 28.0713 49.71 26.4746 49.71 24.1992C49.71 22.9297 49.2607 21.7773 48.3623 20.7422L48.5381 20.6104ZM52.6836 11.7627C54.998 10.4248 57.4883 9.75586 60.1543 9.75586C62.2246 9.75586 63.9287 10.2051 65.2666 11.1035C66.6143 12.002 67.2881 13.1445 67.2881 14.5312C67.2881 15.6641 66.8486 16.6699 65.9697 17.5488C65.0908 18.418 63.8896 19.0479 62.3662 19.4385C63.04 21.2939 63.9531 23.1006 65.1055 24.8584C66.2676 26.6162 67.4297 27.9639 68.5918 28.9014L68.3721 28.9746C66.917 29.4727 65.4912 30.1758 64.0947 31.084L63.875 31.2305L63.8018 30.7617C63.1768 26.9824 62.3027 23.7793 61.1797 21.1523L61.1211 21.0059C60.4473 21.3184 59.5439 21.5674 58.4111 21.7529L58.2939 21.7676V27.2461L60.8721 30H53.2988L53.0645 29.6045H60.0371L57.9131 27.3486V21.4453L58.2207 21.4014C59.334 21.2842 60.2666 21.0645 61.0186 20.7422C60.96 20.625 60.9258 20.5518 60.916 20.5225L60.7695 20.0977C60.7598 20.0684 60.7354 20.0098 60.6963 19.9219C60.0908 20.0977 58.9482 20.2881 57.2686 20.4932L57.1074 20.5225V27.0557L58.7773 28.7988H52.3027L54.207 27.0557V22.1338L54.0898 22.1484C53.5234 22.2754 53.0107 22.417 52.5518 22.5732L52.4346 22.6172L52.3027 22.3242C52.7324 22.1582 53.0693 22.0459 53.3135 21.9873L54.0898 21.7969L54.207 21.7676V21.0059C53.6309 21.0059 52.9131 21.1328 52.0537 21.3867L51.8926 21.4453C51.9121 21.3086 52.0098 20.9912 52.1855 20.4932C52.2051 20.4541 52.2734 20.2344 52.3906 19.834C52.4004 19.8047 52.415 19.7607 52.4346 19.7021C52.874 19.7314 53.2158 19.7461 53.46 19.7461C53.7236 19.7461 53.9678 19.7314 54.1924 19.7021V12.4951C53.7432 12.2217 53.2793 11.9922 52.8008 11.8066L52.6836 11.7627ZM57.1074 11.3818V19.2773C57.3906 19.2773 57.6592 19.2529 57.9131 19.2041V11.9971C58.4502 11.8506 59.0947 11.7773 59.8467 11.7773C61.751 11.7773 63.0449 12.4023 63.7285 13.6523C63.0059 13.0664 62.3711 12.666 61.8242 12.4512C61.2773 12.2266 60.623 12.1143 59.8613 12.1143C59.2656 12.1143 58.7432 12.1729 58.2939 12.29V19.2041L58.4551 19.1748C60.3789 18.8232 61.8047 18.2715 62.7324 17.5195C63.6699 16.7578 64.1387 15.7715 64.1387 14.5605C64.1387 13.4766 63.7188 12.583 62.8789 11.8799C62.0391 11.167 60.9795 10.8105 59.7002 10.8105C58.6748 10.8105 57.8105 11.001 57.1074 11.3818ZM64.1826 20.1709C64.7979 22.1826 65.8867 24.1504 67.4492 26.0742C68.4258 27.2754 69.6611 28.3545 71.1553 29.3115C68.9189 29.9072 66.8193 30.8154 64.8564 32.0361L64.7246 32.124L64.4316 31.8896C66.2969 30.6689 68.2842 29.7705 70.3936 29.1943C67.5811 27.3193 65.3691 24.3213 63.7578 20.2002L63.6699 19.9512C66.6582 18.8184 68.1523 17.0898 68.1523 14.7656C68.1523 13.8086 67.7666 12.7637 66.9951 11.6309C67.9814 12.5293 68.4746 13.6719 68.4746 15.0586C68.4746 17.3047 67.0439 19.0088 64.1826 20.1709ZM71.0674 10.0049H78.0107L76.0479 11.9971V27.2461L77.8936 28.7988H71.0674L73.1035 27.1143V11.8359L71.0674 10.0049ZM78.6699 10.8398L77.1758 12.3193V27.2461L79.6367 30H72.0195L71.6533 29.6045H78.7725L76.7656 27.3926V12.1875L78.4209 10.5469L78.6699 10.8398ZM96.9512 10.0049C95.8379 10.5811 95.1201 11.1084 94.7979 11.5869C94.3096 12.3291 94.0654 13.4473 94.0654 14.9414V15.8936V28.7988H91.5898L84.6758 15.3809V23.335L84.6611 23.9941L84.8369 26.1035C85.0322 27.0801 85.4766 27.8027 86.1699 28.2715L86.2871 28.374C84.9395 27.9248 84.2656 26.4844 84.2656 24.0527L84.2803 22.6758V14.6631L83.4893 13.125V21.5625C83.4893 24.2383 83.665 25.9912 84.0166 26.8213C84.3682 27.6514 85.1934 28.2568 86.4922 28.6377L87.7666 30H79.8271L79.5928 29.6045H86.9316L86.1699 28.7988H79.3438C80.5352 28.3691 81.3262 27.793 81.7168 27.0703C82.1074 26.3477 82.3027 25.1074 82.3027 23.3496V11.6309L80.3545 10.0049H87.7666L85.6865 11.3965L92.7764 25.2246V23.4668L86.6973 11.6309L88.748 10.2393L89.0264 10.5176L87.21 11.748L92.7764 22.6758V15.835V15.0586C92.7764 13.3594 92.6348 12.2266 92.3516 11.6602C92.0781 11.084 91.3945 10.5322 90.3008 10.0049H96.9512ZM97.4639 11.0889L97.2002 11.5283C96.4482 11.7041 95.9355 12.0312 95.6621 12.5098C95.3984 12.9785 95.2666 13.7744 95.2666 14.8975V30H92.1172L91.9268 29.6045H94.8711V15.0439C94.8711 13.667 95.0469 12.71 95.3984 12.1729C95.7598 11.626 96.4482 11.2646 97.4639 11.0889ZM114.822 10.5176L112.083 15.9082C111.907 14.375 111.424 13.2031 110.633 12.3926C109.852 11.582 108.816 11.1768 107.527 11.1768C105.691 11.1768 104.261 11.8896 103.235 13.3154C102.22 14.7412 101.712 16.7383 101.712 19.3066C101.712 24.9609 104.026 27.7881 108.655 27.7881H111.014V20.1855H107.322C106.521 20.1855 105.945 20.1416 105.594 20.0537C105.252 19.9658 104.92 19.7754 104.598 19.4824V19.1162C104.949 19.3799 105.301 19.5557 105.652 19.6436C106.004 19.7217 106.575 19.7607 107.366 19.7607H111.014V18.9697H106.941H106.282C104.827 18.9697 104.1 18.4424 104.1 17.3877C104.1 16.9775 104.222 16.626 104.466 16.333C104.71 16.04 105.003 15.8936 105.345 15.8936C105.599 15.8936 105.818 15.9863 106.004 16.1719C106.199 16.3574 106.297 16.5771 106.297 16.8311C106.297 17.2607 106.141 17.5098 105.828 17.5781L105.477 17.6514C105.359 17.6807 105.301 17.7295 105.301 17.7979C105.301 17.9248 105.462 17.9883 105.784 17.9883H106.282H115.95L113.929 19.9658V27.1875L115.804 28.7988H108.318H106.839C105.599 28.7988 104.573 28.6475 103.763 28.3447C102.952 28.042 102.132 27.5049 101.302 26.7334C99.3389 24.9365 98.3574 22.5293 98.3574 19.5117C98.3574 16.3965 99.2852 13.9648 101.141 12.2168C102.762 10.6836 104.686 9.91699 106.912 9.91699C107.908 9.91699 109.051 10.0928 110.34 10.4443C111.658 10.8057 112.527 10.9863 112.947 10.9863C113.562 10.9863 114.188 10.8301 114.822 10.5176ZM115.701 11.4404L113.196 16.3623L112.845 16.2012L115.364 11.2646L115.701 11.4404ZM111.014 13.667L110.75 13.4766C109.637 12.6855 108.621 12.29 107.703 12.29C106.59 12.29 105.628 12.6855 104.817 13.4766C104.231 14.0625 103.807 14.8291 103.543 15.7764C103.289 16.7236 103.162 17.9736 103.162 19.5264C103.162 21.499 103.357 23.0078 103.748 24.0527C104.139 25.0977 104.856 26.04 105.901 26.8799V27.041C104.769 26.3672 103.953 25.4199 103.455 24.1992C102.957 22.9688 102.708 21.3037 102.708 19.2041C102.708 16.8896 103.143 15.0928 104.012 13.8135C104.881 12.5244 106.102 11.8799 107.674 11.8799C109.041 11.8799 110.154 12.4463 111.014 13.5791V13.667ZM116.58 18.8232L115.071 20.332V27.2021L117.503 30L111.688 29.9561L106.414 30.0146C106.082 30.0146 105.828 30.0049 105.652 29.9854C105.037 29.917 104.417 29.6484 103.792 29.1797H104.1C104.764 29.4727 105.672 29.6191 106.824 29.6191L107.557 29.6045H116.683L114.661 27.3633V20.1855L116.346 18.4863L116.58 18.8232ZM138.436 10.0049L136.429 12.041V27.085L138.23 28.7988H131.492L133.528 27.085V17.2266L128.885 30H127.479L127.361 29.6045H128.636L133.528 15.9814V13.7402L128.079 28.7842H127.054L123.04 16.9629V24.7119C123.04 25.7471 123.108 26.4795 123.245 26.9092C123.382 27.3389 123.704 27.8125 124.212 28.3301L125.53 30H117.869L117.605 29.6045H124.798L124.256 28.7988H117.723L118.03 28.6377C119.114 28.042 119.827 27.4414 120.169 26.8359C120.521 26.2207 120.696 25.2539 120.696 23.9355V11.8213L118.763 10.0049H126.336L124.212 11.9238L128.357 24.1846L128.885 22.9102L125.135 12.041L127.054 10.6201L127.361 10.8691L125.53 12.1582L129.017 22.3682L132.796 11.9238L131.009 10.0049H138.436ZM121.854 13.4766V23.9941C121.854 25.6055 122.005 26.7139 122.308 27.3193C122.62 27.9248 123.26 28.3643 124.227 28.6377L124.095 28.418C123.138 27.7539 122.659 26.7969 122.659 25.5469V24.4629V15.8057L121.854 13.4766ZM139.256 11.1475L137.601 12.334V27.0996L140.149 30H132.371L132.166 29.6045H139.256L137.22 27.3047V12.085L138.948 10.8984L139.256 11.1475ZM156.526 10.0049L156.292 10.2832C155.296 11.5039 154.505 12.9053 153.919 14.4873C153.821 14.2627 153.748 14.0967 153.699 13.9893C153.162 12.8174 152.586 12.0605 151.971 11.7188C151.355 11.377 150.252 11.2061 148.66 11.2061C147.928 11.2061 147.049 11.2305 146.023 11.2793V18.0176H146.961V12.0557C147.703 11.9873 148.411 11.9531 149.085 11.9531C150.325 11.9531 151.238 12.085 151.824 12.3486C152.41 12.6123 152.933 13.125 153.392 13.8867C153.255 13.7891 153.157 13.7158 153.099 13.667C152.308 13.042 151.736 12.6709 151.385 12.5537C151.033 12.4365 150.34 12.3779 149.305 12.3779C148.992 12.3779 148.436 12.3975 147.635 12.4365L147.327 12.4512V18.0176H150.022L151.912 15.4248V21.7383L150.022 19.292H146.023V27.5098H146.961V19.9805H150.14L150.521 20.3613H147.327V27.5098C149.319 27.5098 150.735 27.3682 151.575 27.085C152.415 26.8018 153.074 26.2451 153.553 25.415L154.329 24.082C154.358 24.0234 154.417 23.916 154.505 23.7598C154.759 24.834 155.071 25.6934 155.442 26.3379C155.823 26.9824 156.448 27.7344 157.317 28.5938H140.896L143.123 26.8945V20.3613C142.303 20.459 141.561 20.7129 140.896 21.123L140.691 20.8154C141.287 20.3857 142.098 20.1074 143.123 19.9805V19.292C142.957 19.2725 142.84 19.2627 142.771 19.2627C141.775 19.2627 140.867 19.6289 140.047 20.3613C140.496 18.7988 141.521 18.0176 143.123 18.0176V11.7627L140.896 10.0049H156.526ZM157.229 11.0303L157.127 11.1621C155.936 12.7637 155.14 14.1064 154.739 15.1904L154.49 14.8828C155.145 13.3691 155.989 11.9824 157.024 10.7227L157.229 11.0303ZM152.923 15.9082V22.3828L152.557 22.1924V15.7178L152.923 15.9082ZM158.987 28.6816L158.226 30H142.229L141.995 29.6045H158.035L158.533 28.6816C157.127 27.3828 156.136 25.9961 155.56 24.5215L156.028 24.6973C156.565 25.9473 157.474 27.1973 158.753 28.4473L158.987 28.6816ZM179.041 10.0049L177.034 12.041V27.085L178.836 28.7988H172.098L174.134 27.085V17.2266L169.49 30H168.084L167.967 29.6045H169.241L174.134 15.9814V13.7402L168.685 28.7842H167.659L163.646 16.9629V24.7119C163.646 25.7471 163.714 26.4795 163.851 26.9092C163.987 27.3389 164.31 27.8125 164.817 28.3301L166.136 30H158.475L158.211 29.6045H165.403L164.861 28.7988H158.328L158.636 28.6377C159.72 28.042 160.433 27.4414 160.774 26.8359C161.126 26.2207 161.302 25.2539 161.302 23.9355V11.8213L159.368 10.0049H166.941L164.817 11.9238L168.963 24.1846L169.49 22.9102L165.74 12.041L167.659 10.6201L167.967 10.8691L166.136 12.1582L169.622 22.3682L173.401 11.9238L171.614 10.0049H179.041ZM162.459 13.4766V23.9941C162.459 25.6055 162.61 26.7139 162.913 27.3193C163.226 27.9248 163.865 28.3643 164.832 28.6377L164.7 28.418C163.743 27.7539 163.265 26.7969 163.265 25.5469V24.4629V15.8057L162.459 13.4766ZM179.861 11.1475L178.206 12.334V27.0996L180.755 30H172.977L172.771 29.6045H179.861L177.825 27.3047V12.085L179.554 10.8984L179.861 11.1475ZM192.605 13.2715L192.356 13.125C191.419 12.6074 190.56 12.3486 189.778 12.3486C187.21 12.3486 185.926 14.873 185.926 19.9219C185.926 23.6133 186.722 26.0596 188.313 27.2607L188.182 27.4072C187.205 26.7139 186.507 25.8057 186.087 24.6826C185.677 23.5498 185.472 22.0215 185.472 20.0977C185.472 14.6777 186.897 11.9678 189.749 11.9678C191.048 11.9678 192 12.4023 192.605 13.2715ZM189.471 9.81445C191.844 9.81445 193.738 10.7129 195.154 12.5098C196.58 14.3066 197.293 16.709 197.293 19.7168C197.293 22.5586 196.59 24.8242 195.184 26.5137C193.787 28.2031 191.907 29.0479 189.544 29.0479C187.679 29.0479 186.019 28.4521 184.563 27.2607C182.425 25.5029 181.355 22.9004 181.355 19.4531C181.355 16.5039 182.088 14.1602 183.553 12.4219C185.018 10.6836 186.99 9.81445 189.471 9.81445ZM189.471 11.0742C186.17 11.0742 184.52 13.9746 184.52 19.7754C184.52 25.1367 186.146 27.8174 189.397 27.8174C190.911 27.8174 192.063 27.1094 192.854 25.6934C193.646 24.2676 194.041 22.1875 194.041 19.4531C194.041 16.3574 193.66 14.1992 192.898 12.9785C192.098 11.709 190.955 11.0742 189.471 11.0742ZM194.144 10.5615C195.54 11.2354 196.644 12.3877 197.454 14.0186C198.265 15.6494 198.67 17.5342 198.67 19.6729C198.67 22.8174 197.869 25.3564 196.268 27.29C194.676 29.2236 192.581 30.1904 189.983 30.1904C188.323 30.1904 186.771 29.6289 185.325 28.5059V28.4326C186.536 29.3213 188.055 29.7656 189.881 29.7656C192.332 29.7656 194.344 28.8428 195.916 26.9971C197.488 25.1514 198.274 22.793 198.274 19.9219C198.274 17.7832 197.913 15.9131 197.19 14.3115C196.478 12.71 195.462 11.5137 194.144 10.7227V10.5615ZM219.529 5.37598L219.69 5.53711C218.411 6.76758 217.366 8.08594 216.556 9.49219C215.745 10.8984 214.773 13.0957 213.641 16.084L209.363 27.2754L211.106 28.7988H204.354L206.287 27.2021L200.926 11.9385L198.67 10.0049H205.936L203.87 12.0703L208.704 25.8252L209.275 24.4629L204.954 12.2754L206.448 10.7959L206.712 11.0742L205.408 12.3633L209.466 23.9502L212.571 15.6592C213.499 13.1982 213.963 11.4746 213.963 10.4883C213.963 9.49219 213.597 8.6377 212.864 7.9248L213.143 7.86621C215.984 7.31934 218.113 6.48926 219.529 5.37598ZM220.32 6.26953L220.452 6.60645C218.587 8.06152 216.663 11.3818 214.681 16.5674L210.55 27.334L212.835 30H205.276L204.954 29.6045H211.971L210.125 27.4365L214.329 16.4648L215.12 14.3848C215.823 12.5879 216.653 10.9473 217.61 9.46289C218.567 7.96875 219.471 6.9043 220.32 6.26953ZM218.577 10.0049H225.521L223.558 11.9971V27.2461L225.403 28.7988H218.577L220.613 27.1143V11.8359L218.577 10.0049ZM226.18 10.8398L224.686 12.3193V27.2461L227.146 30H219.529L219.163 29.6045H226.282L224.275 27.3926V12.1875L225.931 10.5469L226.18 10.8398ZM243.626 10.0049L243.392 10.2832C242.396 11.5039 241.604 12.9053 241.019 14.4873C240.921 14.2627 240.848 14.0967 240.799 13.9893C240.262 12.8174 239.686 12.0605 239.07 11.7188C238.455 11.377 237.352 11.2061 235.76 11.2061C235.027 11.2061 234.148 11.2305 233.123 11.2793V18.0176H234.061V12.0557C234.803 11.9873 235.511 11.9531 236.185 11.9531C237.425 11.9531 238.338 12.085 238.924 12.3486C239.51 12.6123 240.032 13.125 240.491 13.8867C240.354 13.7891 240.257 13.7158 240.198 13.667C239.407 13.042 238.836 12.6709 238.484 12.5537C238.133 12.4365 237.439 12.3779 236.404 12.3779C236.092 12.3779 235.535 12.3975 234.734 12.4365L234.427 12.4512V18.0176H237.122L239.012 15.4248V21.7383L237.122 19.292H233.123V27.5098H234.061V19.9805H237.239L237.62 20.3613H234.427V27.5098C236.419 27.5098 237.835 27.3682 238.675 27.085C239.515 26.8018 240.174 26.2451 240.652 25.415L241.429 24.082C241.458 24.0234 241.517 23.916 241.604 23.7598C241.858 24.834 242.171 25.6934 242.542 26.3379C242.923 26.9824 243.548 27.7344 244.417 28.5938H227.996L230.223 26.8945V20.3613C229.402 20.459 228.66 20.7129 227.996 21.123L227.791 20.8154C228.387 20.3857 229.197 20.1074 230.223 19.9805V19.292C230.057 19.2725 229.939 19.2627 229.871 19.2627C228.875 19.2627 227.967 19.6289 227.146 20.3613C227.596 18.7988 228.621 18.0176 230.223 18.0176V11.7627L227.996 10.0049H243.626ZM244.329 11.0303L244.227 11.1621C243.035 12.7637 242.239 14.1064 241.839 15.1904L241.59 14.8828C242.244 13.3691 243.089 11.9824 244.124 10.7227L244.329 11.0303ZM240.022 15.9082V22.3828L239.656 22.1924V15.7178L240.022 15.9082ZM246.087 28.6816L245.325 30H229.329L229.095 29.6045H245.135L245.633 28.6816C244.227 27.3828 243.235 25.9961 242.659 24.5215L243.128 24.6973C243.665 25.9473 244.573 27.1973 245.853 28.4473L246.087 28.6816ZM260.164 10.166C259.656 10.8496 259.251 11.5625 258.948 12.3047C258.353 13.7695 257.957 14.668 257.762 15L257.688 15.0879C257.649 14.9805 257.62 14.8975 257.601 14.8389C257.327 13.96 257.103 13.3496 256.927 13.0078C256.751 12.666 256.487 12.3389 256.136 12.0264C255.247 11.2354 254.236 10.8398 253.104 10.8398C252.059 10.8398 251.189 11.1328 250.496 11.7188C249.803 12.2949 249.456 13.0225 249.456 13.9014C249.456 15.542 250.691 16.6602 253.162 17.2559L255.638 17.8564C259.163 18.7061 260.926 20.5664 260.926 23.4375C260.926 25.0391 260.32 26.3867 259.109 27.4805C257.908 28.5645 256.419 29.1064 254.642 29.1064C253.528 29.1064 252.283 28.9355 250.906 28.5938L249.192 28.1689C248.499 28.0029 247.928 27.9199 247.479 27.9199C246.883 27.9199 246.268 28.1104 245.633 28.4912L245.516 28.2861C246.727 26.46 247.576 24.7217 248.064 23.0713L248.328 23.1445C248.533 24.6777 249.148 25.8691 250.174 26.7188C251.199 27.5684 252.542 27.9932 254.202 27.9932C255.511 27.9932 256.551 27.6904 257.322 27.085C258.094 26.4795 258.479 25.6641 258.479 24.6387C258.479 23.457 257.942 22.4805 256.868 21.709C256.097 21.1621 254.515 20.6543 252.122 20.1855C250.276 19.8242 248.938 19.2236 248.108 18.3838C247.278 17.5439 246.863 16.377 246.863 14.8828C246.863 13.3398 247.415 12.0898 248.519 11.1328C249.632 10.166 251.077 9.68262 252.854 9.68262C253.997 9.68262 255.33 9.8877 256.854 10.2979C257.566 10.4932 258.094 10.5908 258.436 10.5908C258.914 10.5908 259.437 10.4248 260.003 10.0928L260.164 10.166ZM261.072 10.7812L260.94 11.001C260.54 11.6748 260.198 12.3193 259.915 12.9346C259.231 14.3701 258.846 15.1709 258.758 15.3369L258.685 15.4395L258.333 15.293L258.392 15.1611C258.675 14.5166 259.085 13.6768 259.622 12.6416L260.618 10.708L260.691 10.5908L261.072 10.7812ZM256.795 13.6963C255.721 12.5537 254.568 11.9824 253.338 11.9824C252.596 11.9824 251.98 12.1973 251.492 12.627C251.004 13.0566 250.76 13.6035 250.76 14.2676C250.76 14.9902 251.253 15.7324 252.239 16.4941L252.356 16.5674L252.283 16.6846C250.994 16.1084 250.35 15.2734 250.35 14.1797C250.35 13.418 250.623 12.7979 251.17 12.3193C251.717 11.8408 252.43 11.6016 253.309 11.6016C254.148 11.6016 254.881 11.7822 255.506 12.1436C256.141 12.4951 256.604 12.9932 256.897 13.6377L256.795 13.6963ZM260.164 19.5117C261.492 20.5176 262.156 21.8945 262.156 23.6426C262.156 25.5078 261.434 27.0898 259.988 28.3887C258.543 29.6777 256.785 30.3223 254.715 30.3223C253.66 30.3223 252.708 30.2148 251.858 30L249.515 29.4287C248.968 29.292 248.382 29.2236 247.757 29.2236C247.2 29.2236 246.688 29.3359 246.219 29.5605L246.043 29.1357C246.551 28.9014 247.068 28.7842 247.596 28.7842C248.182 28.7842 248.851 28.8721 249.603 29.0479L251.858 29.5898C252.757 29.8047 253.704 29.9121 254.7 29.9121C256.653 29.9121 258.313 29.292 259.681 28.0518C261.058 26.8018 261.746 25.293 261.746 23.5254C261.746 22.0312 261.219 20.7227 260.164 19.5996V19.5117ZM249.734 23.7305C250.096 25.4883 251.062 26.7334 252.635 27.4658V27.583C250.818 27.0557 249.72 25.7959 249.339 23.8037L249.734 23.7305ZM247.903 18.9844L248.401 19.2627C248.724 19.8389 249.666 20.3174 251.229 20.6982L253.587 21.2842C255.188 21.6846 256.253 22.0312 256.78 22.3242C257.317 22.6074 257.698 23.042 257.923 23.6279L257.82 23.6865C257.381 23.1787 256.902 22.8076 256.385 22.5732C255.877 22.3389 254.896 22.0508 253.44 21.709C251.331 21.2207 249.915 20.8008 249.192 20.4492C248.47 20.0879 248.04 19.5996 247.903 18.9844Z" fill="white"/>
</g>
</svg>
